<?xml version="1.0" encoding="utf-8"?>
<!-- Generator: Adobe Illustrator 15.0.0, SVG Export Plug-In . SVG Version: 6.00 Build 0)  -->
<!DOCTYPE svg PUBLIC "-//W3C//DTD SVG 1.1//EN" "http://www.w3.org/Graphics/SVG/1.1/DTD/svg11.dtd">
<svg version="1.1" id="Layer_1" xmlns="http://www.w3.org/2000/svg" xmlns:xlink="http://www.w3.org/1999/xlink" x="0px" y="0px"
	 width="40px" height="40px" viewBox="0 0 40 40" enable-background="new 0 0 40 40" xml:space="preserve">
<path fill="#A48700" d="M20,1C9.508,1,1,9.506,1,20c0,10.492,8.508,19,19,19c10.493,0,19-8.508,19-19C39,9.504,30.493,1,20,1z
	 M24.409,21.766c-0.891,4.621-4.965,8.123-9.843,8.123c-5.527,0-10.024-4.496-10.024-10.025c0-5.526,4.497-10.022,10.024-10.022
	c2.606,0,4.982,1,6.768,2.635l-2.961,2.963c-1.022-0.881-2.354-1.416-3.807-1.416c-3.221,0-5.842,2.621-5.842,5.842
	c0,3.224,2.621,5.845,5.842,5.845c2.556,0,4.731-1.65,5.522-3.941h-5.522v-3.793h5.526h4.317c0.118,0.611,0.182,1.244,0.182,1.892
	C24.593,20.514,24.528,21.149,24.409,21.766z M32.207,20.678v3.447h-2.413v-3.447h-3.447v-2.414h3.447v-3.447h2.413v3.447h3.446
	v2.414H32.207z"/>
</svg>
