<?xml version="1.0" encoding="utf-8"?>
<!-- Generator: Adobe Illustrator 15.0.0, SVG Export Plug-In . SVG Version: 6.00 Build 0)  -->
<!DOCTYPE svg PUBLIC "-//W3C//DTD SVG 1.1//EN" "http://www.w3.org/Graphics/SVG/1.1/DTD/svg11.dtd">
<svg version="1.1" id="Layer_1" xmlns="http://www.w3.org/2000/svg" xmlns:xlink="http://www.w3.org/1999/xlink" x="0px" y="0px"
	 width="40px" height="40px" viewBox="0 0 40 40" enable-background="new 0 0 40 40" xml:space="preserve">
<g>
	<g>
		<g>
			<path fill="#A48700" d="M19.999,23.803c2.097,0,3.805-1.705,3.805-3.803c0-0.828-0.271-1.595-0.719-2.217
				c-0.691-0.96-1.814-1.589-3.083-1.589c-1.271,0-2.394,0.629-3.086,1.586c-0.449,0.625-0.718,1.39-0.719,2.218
				C16.195,22.096,17.902,23.803,19.999,23.803z"/>
			<polygon fill="#A48700" points="28.306,15.346 28.306,12.158 28.306,11.684 27.829,11.686 24.642,11.694 24.654,15.358 			"/>
			<path fill="#A48700" d="M20,1C9.522,1,1,9.522,1,20c0,10.477,8.522,19,19,19c10.477,0,19-8.523,19-19C39,9.522,30.477,1,20,1z
				 M30.806,17.783v8.846c0,2.305-1.874,4.178-4.177,4.178H13.371c-2.305,0-4.177-1.873-4.177-4.178v-8.846v-4.412
				c0-2.304,1.872-4.177,4.177-4.177h13.258c2.303,0,4.177,1.873,4.177,4.177V17.783z"/>
			<path fill="#A48700" d="M25.91,20c0,3.258-2.65,5.91-5.91,5.91s-5.909-2.652-5.909-5.91c0-0.783,0.155-1.533,0.434-2.217h-3.226
				v8.846c0,1.145,0.929,2.069,2.071,2.069h13.258c1.142,0,2.071-0.926,2.071-2.069v-8.846h-3.229
				C25.752,18.467,25.91,19.217,25.91,20z"/>
		</g>
	</g>
</g>
</svg>
